# xmcd CD database file
# Copyright (C) 1995-1998 Ti Kan
#
# Track frame offsets:
#	150
#	18072
#	33852
#	50715
#	65630
#	82547
#	100162
#	116772
#	131662
#	147745
#
# Disc length: 2193 seconds
#
# Revision: 1
# Processed by: cddbd v1.4PL0 Copyright (c) Steve Scherf et al.
# Submitted via: CDex 1.30Release
#
DISCID=83088f0a
DTITLE=Michelle Wright - Greatest Hits
DYEAR=1900
DGENRE=Country
TTITLE0=Take It Like A Man
TTITLE1=Safe In The Arms Of Love
TTITLE2=He Would Be 16
TTITLE3=Nobody's Girl
TTITLE4=When I Found You
TTITLE5=New Kind Of Love
TTITLE6=The Answer Is Yes
TTITLE7=What Love Looks Like
TTITLE8=Guitar Talk
TTITLE9=Your Love
EXTD=ID3G:   2
EXTT0=
EXTT1=
EXTT2=
EXTT3=
EXTT4=
EXTT5=
EXTT6=
EXTT7=
EXTT8=
EXTT9=
PLAYORDER=
